<svg xmlns="http://www.w3.org/2000/svg" viewBox="0 0 64 64" role="img" aria-label="Zcoated">
  <defs>
    <linearGradient id="bg" x1="0" y1="0" x2="1" y2="1">
      <stop offset="0%" stop-color="#0f0f10" />
      <stop offset="100%" stop-color="#232326" />
    </linearGradient>
    <linearGradient id="accent" x1="0" y1="0" x2="1" y2="1">
      <stop offset="0%" stop-color="#ffd36b" />
      <stop offset="55%" stop-color="#ffb347" />
      <stop offset="100%" stop-color="#fe9874" />
    </linearGradient>
  </defs>
  <rect width="64" height="64" rx="14" fill="url(#bg)" />
  <path
    d="M16 18h31v5L25 41h22v5H16v-5l22-18H16z"
    fill="url(#accent)"
  />
  <path
    d="M49.5 19.5c-7.9 0-13.5 5.4-13.5 12.5s5.6 12.5 13.5 12.5c2.1 0 4.2-.4 6.2-1.3v-5.5c-1.7 1.2-3.7 1.8-5.9 1.8c-4.8 0-8.1-3.1-8.1-7.5s3.3-7.5 8.1-7.5c2.2 0 4.2.6 5.9 1.8v-5.5c-2-.9-4.1-1.3-6.2-1.3Z"
    fill="none"
    stroke="#f4f4f5"
    stroke-opacity=".92"
    stroke-width="2"
    stroke-linejoin="round"
  />
</svg>
